<?xml version="1.0" standalone="no"?>
<!DOCTYPE svg PUBLIC "-//W3C//DTD SVG 20010904//EN"
 "http://www.w3.org/TR/2001/REC-SVG-20010904/DTD/svg10.dtd">
<svg version="1.0" xmlns="http://www.w3.org/2000/svg"
 width="493.000000pt" height="486.000000pt" viewBox="0 0 493.000000 486.000000"
 preserveAspectRatio="xMidYMid meet">

<g transform="translate(0.000000,486.000000) scale(0.100000,-0.100000)"
fill="#FFFFFF" stroke="rect">
  <rect width="4930" height="4860" fill="#000000"/>
  <path d="M0 2430 l0 -2430 2465 0 2465 0 0 2430 0 2430 -2465 0 -2465 0 0
-2430z m2583 2329 c93 -14 127 -36 127 -82 0 -18 -7 -87 -16 -155 -15 -106
-15 -125 -3 -137 8 -7 52 -24 99 -39 47 -14 131 -48 187 -75 57 -28 109 -48
115 -45 7 2 41 44 76 92 93 129 119 155 151 147 30 -8 123 -69 194 -127 69
-58 66 -73 -39 -194 -47 -54 -90 -109 -96 -121 -21 -43 42 -103 94 -90 13 4
50 32 83 63 118 110 143 128 168 117 45 -21 167 -207 167 -256 0 -33 -26 -60
-137 -139 -62 -44 -113 -84 -113 -89 0 -5 14 -38 31 -72 38 -75 85 -211 95
-272 3 -25 9 -47 13 -49 6 -4 44 2 191 28 121 22 146 21 165 -8 25 -37 35 -83
42 -190 6 -89 4 -100 -12 -112 -15 -11 -73 -14 -262 -14 -230 0 -244 1 -263
20 -11 11 -20 30 -21 43 -2 69 -30 228 -54 306 -86 288 -337 595 -610 747
-139 77 -401 164 -496 164 -25 0 -46 7 -59 20 -18 18 -19 34 -20 254 0 129 3
242 7 251 13 36 38 38 196 14z m-365 -1 c9 -9 12 -80 12 -260 0 -287 6 -270
-109 -283 -180 -19 -456 -142 -630 -282 -273 -218 -455 -548 -487 -881 -11
-114 -4 -112 -299 -112 -282 0 -270 -4 -267 94 5 131 33 229 70 241 19 5 181
-16 269 -36 26 -5 50 -6 55 -1 5 5 20 51 34 103 13 52 45 139 69 194 25 54 41
101 37 105 -5 3 -26 16 -48 29 -69 44 -191 139 -198 156 -20 52 125 285 178
285 14 0 54 -27 100 -67 120 -105 144 -122 167 -116 23 6 69 63 69 85 0 8 -40
63 -90 122 -56 68 -90 117 -90 131 0 35 142 155 235 197 27 12 30 11 76 -42
27 -30 70 -85 96 -122 27 -37 53 -70 60 -72 7 -3 59 17 115 44 56 27 141 61
188 76 121 39 117 33 97 161 -23 145 -22 195 3 218 39 35 261 60 288 33z
m-239 -827 c25 -25 62 -125 68 -182 l5 -46 -67 -32 c-247 -115 -454 -382 -481
-622 -4 -35 -15 -70 -26 -84 -19 -24 -24 -25 -132 -25 -74 0 -116 4 -124 12
-30 30 -3 203 52 340 39 96 111 222 164 288 21 25 44 53 52 64 64 79 280 234
395 284 62 26 70 27 94 3z m889 -91 c87 -64 80 -193 -14 -247 -48 -28 -93 -29
-143 -3 -104 53 -109 198 -9 261 44 27 121 22 166 -11z m-514 -301 c23 -18 26
-28 26 -79 l0 -58 46 -7 c93 -14 195 -78 230 -146 19 -38 18 -54 -8 -84 -17
-19 -36 -27 -75 -32 -47 -5 -55 -3 -91 25 -33 27 -81 52 -98 52 -2 0 -4 -53
-4 -118 l0 -117 66 -13 c76 -14 110 -30 159 -74 54 -47 78 -101 83 -190 10
-164 -70 -271 -235 -316 l-68 -19 -5 -67 c-6 -74 -15 -86 -69 -86 -54 0 -71
23 -71 95 l0 62 -52 7 c-95 13 -188 66 -226 128 -36 60 -36 75 -3 108 42 42
99 42 166 -1 28 -17 67 -34 87 -37 l38 -5 0 111 0 112 -27 6 c-131 28 -198 69
-248 149 -41 66 -47 172 -16 256 36 95 129 169 232 187 l44 8 6 64 c9 93 55
125 113 79z m942 -170 c76 -71 72 -171 -9 -233 -59 -45 -152 -29 -198 35 -19
26 -24 47 -24 90 0 62 14 85 70 121 42 27 125 20 161 -13z m-2325 -598 c18
-15 26 -39 41 -125 43 -259 158 -491 340 -688 184 -200 455 -335 758 -379 47
-7 93 -19 103 -27 15 -14 17 -39 17 -265 0 -282 -1 -287 -69 -286 -72 1 -224
36 -238 55 -17 24 -17 75 3 212 13 86 14 115 5 126 -7 8 -56 29 -109 46 -53
17 -136 50 -184 72 -48 22 -94 38 -102 35 -8 -3 -47 -50 -87 -104 -90 -123
-118 -153 -142 -153 -25 0 -146 73 -202 122 -27 24 -45 48 -45 61 0 13 38 68
90 131 50 61 90 118 90 127 0 23 -54 79 -77 79 -10 -1 -43 -23 -73 -51 -79
-73 -169 -139 -189 -139 -24 0 -51 31 -108 125 -60 96 -76 140 -63 165 12 23
59 62 168 140 51 36 92 70 92 76 0 6 -22 58 -49 115 -27 57 -57 133 -67 169
-25 94 -26 95 -125 80 -186 -26 -233 -29 -256 -15 -24 16 -50 113 -54 200 -2
72 -1 82 17 99 13 14 50 16 254 16 217 0 240 -2 261 -19z m503 6 c11 -8 27
-49 42 -106 43 -169 103 -270 237 -397 170 -162 366 -233 602 -221 62 4 142
15 183 27 276 77 496 303 564 577 30 124 29 123 164 123 160 0 162 -3 119
-179 -47 -192 -125 -335 -262 -481 -157 -167 -333 -269 -558 -321 -139 -33
-397 -34 -525 -2 -354 89 -654 358 -775 697 -42 116 -62 228 -47 262 12 26 33
30 158 32 53 1 86 -2 98 -11z m2691 -1 c16 -12 18 -23 12 -103 -7 -108 -22
-165 -51 -192 -23 -22 -34 -21 -313 16 l-42 5 -10 -43 c-16 -62 -79 -222 -112
-284 l-28 -54 72 -52 c161 -117 179 -131 189 -154 15 -33 6 -58 -52 -155 -59
-98 -96 -140 -123 -140 -10 0 -46 26 -80 58 -119 111 -157 142 -173 142 -22 0
-84 -64 -84 -87 0 -11 14 -32 30 -48 42 -41 137 -166 149 -197 8 -22 5 -29
-22 -55 -81 -77 -228 -153 -253 -132 -6 5 -49 63 -95 129 -53 76 -91 120 -102
120 -10 0 -49 -16 -88 -36 -39 -19 -119 -51 -177 -71 -59 -19 -113 -41 -121
-49 -12 -11 -13 -26 -3 -91 7 -43 12 -115 12 -159 0 -74 -2 -83 -22 -96 -25
-16 -106 -33 -204 -44 -96 -10 -96 -11 -91 287 4 237 5 243 27 261 13 11 39
18 64 18 54 0 194 32 292 66 311 106 565 328 714 624 60 121 95 224 125 375
18 93 28 124 45 137 20 16 48 18 259 18 184 0 241 -3 256 -14z m-3887 -2048
c15 -19 177 -300 187 -323 6 -16 8 -17 13 -5 2 8 22 44 42 80 21 36 50 87 65
113 82 148 76 142 133 145 l52 3 0 -315 0 -316 -40 0 -40 0 -2 243 -3 242 -59
-105 c-111 -197 -122 -212 -159 -208 -30 3 -38 13 -122 158 l-90 155 -3 -242
-2 -243 -40 0 -40 0 0 315 0 315 49 0 c27 0 53 -6 59 -12z m897 2 c14 -23 215
-586 215 -603 0 -15 -7 -18 -42 -15 l-42 3 -27 75 -27 75 -130 3 -130 3 -6
-26 c-4 -14 -16 -50 -27 -80 -20 -54 -21 -55 -60 -55 -31 0 -39 4 -39 19 0 16
202 580 216 602 7 12 91 11 99 -1z m395 -133 l5 -138 110 141 110 140 42 0
c23 0 44 -3 46 -8 3 -4 -47 -72 -110 -150 -63 -79 -113 -149 -110 -155 3 -7
62 -74 133 -151 71 -76 130 -145 132 -152 3 -11 -9 -14 -46 -14 l-50 0 -118
132 c-65 73 -124 139 -131 146 -10 10 -13 -16 -15 -130 l-3 -143 -40 0 -40 0
-3 300 c-1 165 0 306 3 313 3 9 18 12 42 10 l38 -3 5 -138z m800 108 l0 -35
-140 0 -140 0 0 -100 0 -100 125 0 125 0 0 -35 0 -35 -125 0 -125 0 0 -110 0
-110 140 0 140 0 0 -35 0 -35 -182 2 -183 3 -3 300 c-1 165 0 305 3 312 3 10
49 13 185 13 l180 0 0 -35z m363 -195 l152 -231 5 228 5 228 40 0 40 0 0 -310
0 -310 -41 -3 -41 -3 -159 240 -159 240 -3 -239 -2 -240 -40 0 -40 0 0 315 0
315 45 0 45 0 153 -230z m492 -85 l0 -310 -40 0 -40 0 -3 300 c-1 165 0 306 3
313 3 9 18 12 42 10 l38 -3 0 -310z m535 280 l0 -35 -140 0 -140 0 0 -100 0
-100 125 0 125 0 0 -35 0 -35 -125 0 -125 0 0 -110 0 -110 140 0 140 0 0 -35
0 -35 -182 2 -183 3 -3 300 c-1 165 0 305 3 312 3 10 49 13 185 13 l180 0 0
-35z m490 0 l0 -35 -140 0 -140 0 0 -100 0 -99 128 -3 127 -3 0 -30 0 -30
-127 -3 -128 -3 0 -109 0 -110 139 0 c119 0 140 -2 145 -16 4 -9 4 -25 1 -35
-6 -18 -20 -19 -186 -19 l-179 0 0 315 0 315 180 0 180 0 0 -35z m464 6 c66
-42 86 -137 44 -212 -12 -22 -24 -39 -27 -39 -3 0 -15 -7 -25 -15 -19 -15 -19
-15 3 -39 22 -23 121 -254 121 -282 0 -18 -73 -20 -87 -1 -5 6 -25 52 -43 102
-19 50 -41 101 -49 114 -20 32 -69 51 -130 51 l-50 0 -3 -138 -3 -137 -42 -3
-43 -3 0 316 0 317 148 -4 c135 -3 150 -5 186 -27z"/>
<path d="M2193 3180 c-38 -23 -53 -48 -53 -90 0 -40 47 -90 84 -90 l26 0 0
100 c0 110 -3 114 -57 80z"/>
<path d="M2380 2671 l0 -110 30 10 c44 16 80 63 80 106 0 28 -8 43 -36 69 -19
19 -44 34 -55 34 -18 0 -19 -8 -19 -109z"/>
<path d="M1117 613 c-2 -10 -25 -75 -50 -145 l-46 -128 101 0 c91 0 100 2 95
18 -30 102 -95 269 -100 255z"/>
<path d="M4470 565 l0 -105 69 0 c81 0 130 26 145 78 24 84 -29 132 -146 132
l-68 0 0 -105z"/>
</g>
</svg>
