<?xml version="1.0" standalone="no"?>
<!DOCTYPE svg PUBLIC "-//W3C//DTD SVG 20010904//EN"
 "http://www.w3.org/TR/2001/REC-SVG-20010904/DTD/svg10.dtd">
<svg version="1.0" xmlns="http://www.w3.org/2000/svg"
 width="1024.000000pt" height="1024.000000pt" viewBox="0 0 1024.000000 1024.000000"
 preserveAspectRatio="xMidYMid meet">

<g transform="translate(0.000000,1024.000000) scale(0.100000,-0.100000)"
fill="white" stroke="none">
<path d="M4785 8308 c-3 -13 -18 -99 -34 -193 l-27 -170 -45 -9 c-24 -5 -105
-24 -179 -42 l-135 -34 -136 136 -136 136 -84 -48 c-93 -52 -472 -274 -477
-279 -2 -1 25 -69 58 -151 73 -177 84 -204 78 -207 -2 -1 -73 -70 -158 -154
l-155 -152 -158 49 c-87 28 -164 50 -172 50 -15 0 -303 -460 -317 -506 -2 -6
51 -71 116 -145 66 -74 128 -143 137 -154 17 -19 17 -24 4 -70 -8 -28 -26
-103 -39 -168 -13 -65 -27 -121 -30 -124 -3 -3 -84 -25 -180 -48 -96 -24 -180
-46 -185 -50 -8 -4 -11 -113 -11 -330 0 -300 1 -324 18 -329 9 -2 91 -21 182
-41 91 -20 170 -38 176 -40 6 -2 17 -32 23 -66 7 -35 24 -100 37 -146 l24 -84
-76 -87 c-42 -48 -103 -118 -136 -155 l-60 -68 98 -157 c54 -86 123 -196 154
-243 l55 -86 80 28 c44 16 124 45 177 65 112 42 91 49 228 -76 51 -47 111
-101 133 -121 l41 -36 -67 -176 c-37 -97 -67 -181 -67 -186 0 -12 66 -51 340
-203 107 -60 199 -107 205 -106 6 2 37 32 69 68 33 36 95 102 139 148 l79 82
78 -24 c43 -14 119 -33 170 -43 59 -11 94 -23 99 -33 4 -8 21 -99 37 -202 l29
-188 327 0 c303 0 327 1 332 18 2 9 17 91 31 182 14 91 28 174 30 185 4 17 20
24 92 39 48 10 126 29 173 43 l85 24 60 -63 c33 -35 97 -103 143 -152 l82 -90
36 17 c42 21 494 276 510 289 9 6 -1 40 -33 121 -25 62 -57 145 -71 184 l-27
73 40 32 c22 18 89 77 149 131 72 65 114 97 125 94 9 -3 89 -32 179 -65 l163
-59 23 31 c24 31 134 206 233 369 l53 88 -138 156 -139 156 24 81 c13 44 31
111 39 149 12 50 20 67 32 67 9 0 95 16 190 37 l172 38 0 331 0 331 -169 41
c-92 23 -175 42 -184 42 -9 0 -19 10 -21 23 -2 12 -21 91 -41 174 l-36 153
118 131 c65 72 128 144 141 159 l22 28 -123 204 c-177 291 -188 308 -205 308
-8 0 -85 -23 -171 -50 l-157 -51 -160 160 -159 160 18 43 c27 60 127 301 127
304 0 4 -477 283 -520 304 l-46 22 -134 -136 -135 -136 -160 39 c-88 22 -169
41 -179 43 -17 3 -23 25 -48 183 -16 99 -31 186 -33 193 -3 9 -78 12 -329 12
l-326 0 -5 -22z m462 -659 c656 -54 1225 -415 1543 -979 93 -165 170 -384 205
-585 35 -194 32 -541 -5 -720 -109 -531 -428 -979 -902 -1264 -221 -133 -551
-239 -798 -256 -47 -3 -104 -8 -127 -11 -38 -5 -220 8 -328 22 -437 58 -905
316 -1190 655 -163 194 -292 431 -363 664 -54 178 -73 292 -79 482 -12 346 48
634 192 928 87 179 188 326 313 456 245 255 484 411 792 513 206 68 300 85
597 105 12 0 80 -4 150 -10z"/>
<path d="M4890 7465 c-281 -39 -533 -135 -776 -296 -143 -95 -353 -303 -443
-439 -223 -336 -326 -737 -293 -1141 14 -170 32 -258 77 -395 215 -648 802
-1109 1490 -1172 55 -6 105 -7 112 -5 9 4 13 29 13 84 l0 79 45 0 45 0 0 -79
c0 -48 4 -81 11 -83 6 -2 54 0 107 4 300 24 640 154 897 343 326 241 566 630
652 1054 25 123 25 516 0 649 -41 219 -144 468 -269 649 -189 273 -394 447
-699 593 -177 84 -340 131 -538 156 -175 21 -160 27 -163 -63 l-3 -78 -42 -3
-43 -3 0 80 0 81 -42 -1 c-24 -1 -86 -7 -138 -14z m520 -349 c532 -122 941
-517 1065 -1028 57 -234 55 -442 -5 -680 -67 -268 -177 -465 -364 -653 -190
-191 -427 -318 -699 -377 -150 -32 -449 -31 -591 1 -500 114 -882 449 -1031
905 -123 376 -101 728 65 1084 121 258 359 497 629 631 233 117 401 153 666
146 121 -4 186 -11 265 -29z"/>
<path d="M4993 7019 c-204 -20 -436 -103 -604 -215 -40 -27 -116 -90 -169
-141 -225 -214 -364 -510 -382 -813 l-3 -45 107 -3 c122 -3 111 -12 123 101
20 177 128 409 259 555 135 148 341 270 541 318 186 45 407 34 590 -28 372
-127 641 -450 701 -840 l17 -108 109 0 109 0 -7 73 c-48 522 -428 974 -929
1105 -157 41 -316 55 -462 41z"/>
<path d="M5030 6587 l0 -64 -55 -12 c-88 -20 -186 -74 -244 -136 -162 -171
-156 -410 15 -581 51 -52 86 -75 186 -123 67 -33 126 -58 130 -55 4 3 8 72 8
154 l0 149 -57 38 c-134 89 -132 236 5 288 l52 20 0 116 c0 168 -10 269 -26
269 -10 0 -14 -17 -14 -63z"/>
<path d="M5162 6454 l3 -197 40 -12 c55 -16 113 -47 169 -90 27 -20 49 -35 51
-33 33 40 145 194 145 199 0 12 -131 105 -185 132 -27 13 -77 33 -110 43 -33
10 -63 23 -67 29 -4 5 -8 36 -8 68 0 50 -2 57 -20 57 -20 0 -20 -5 -18 -196z"/>
<path d="M5059 6161 c-30 -24 -33 -89 -5 -120 28 -30 86 -28 116 4 68 73 -34
179 -111 116z"/>
<path d="M5160 5742 l1 -157 51 -30 c72 -42 91 -72 96 -148 5 -80 -20 -121
-95 -157 l-53 -25 0 -192 c0 -186 1 -193 20 -193 18 0 20 7 20 64 0 36 4 67 9
71 5 3 45 15 88 28 226 65 352 255 314 473 -26 148 -114 263 -259 337 -48 25
-111 55 -139 66 l-53 21 0 -158z"/>
<path d="M3840 5643 c0 -27 7 -88 16 -138 86 -496 477 -895 979 -1000 110 -23
323 -31 438 -16 380 51 703 246 903 547 118 177 204 433 204 605 l0 49 -105 0
c-119 0 -108 10 -120 -105 -15 -136 -88 -326 -169 -438 -60 -85 -185 -207
-273 -268 -193 -133 -428 -199 -662 -186 -267 15 -505 122 -697 312 -168 166
-270 379 -299 628 l-6 57 -105 0 -104 0 0 -47z"/>
<path d="M5040 5473 c-28 -35 -22 -99 10 -125 25 -21 87 -23 111 -5 44 34 49
83 13 126 -21 26 -33 31 -69 31 -36 0 -48 -5 -65 -27z"/>
<path d="M4686 5295 c-89 -120 -90 -110 8 -180 84 -59 151 -91 243 -116 43
-12 81 -27 85 -33 4 -6 8 -37 8 -68 0 -45 3 -58 15 -58 13 0 15 29 15 200 l0
200 -24 0 c-37 0 -159 66 -214 115 -28 25 -52 45 -53 45 -2 0 -39 -48 -83
-105z"/>
<path d="M1866 2583 c-3 -27 -11 -95 -16 -153 -5 -58 -19 -192 -30 -298 -11
-106 -18 -197 -15 -203 7 -11 162 -12 169 -1 3 5 12 100 21 213 8 112 17 211
18 219 1 8 43 -46 92 -120 l90 -135 40 0 c39 0 40 0 135 135 87 124 95 133 98
105 2 -16 11 -118 20 -225 l17 -195 79 -3 c44 -2 83 1 88 6 7 7 -32 447 -58
655 l-6 47 -87 0 -88 0 -92 -155 c-51 -85 -96 -155 -101 -155 -8 0 -99 143
-160 253 l-32 57 -88 0 -88 0 -6 -47z"/>
<path d="M3143 2613 c-14 -40 -263 -624 -277 -652 -9 -17 -12 -32 -7 -36 6 -3
43 -3 83 -1 40 3 80 6 88 6 10 0 25 24 40 65 l25 66 138 -3 139 -3 25 -60 c14
-33 30 -63 37 -67 18 -12 186 -10 186 2 0 6 -11 32 -24 59 -14 26 -70 158
-126 292 -56 134 -111 268 -123 296 l-22 53 -88 0 c-74 0 -89 -3 -94 -17z
m115 -238 c5 -16 22 -60 36 -97 l26 -68 -84 0 -84 0 41 105 c23 58 44 102 48
97 3 -4 11 -20 17 -37z"/>
<path d="M3782 2278 l3 -353 88 -3 87 -3 0 103 1 103 38 43 37 43 115 -143
114 -143 103 -3 c56 -1 102 1 102 5 -1 4 -68 95 -150 202 l-150 193 78 91 c42
49 101 119 130 154 l54 63 -100 0 -99 0 -54 -57 c-30 -32 -90 -100 -134 -151
l-80 -93 -3 150 -3 151 -89 0 -90 0 2 -352z"/>
<path d="M4622 2278 l3 -353 248 -3 247 -2 0 70 0 69 -157 3 -158 3 0 70 0 70
158 3 157 3 0 69 0 70 -155 0 -155 0 0 70 0 70 155 0 155 0 0 70 0 70 -250 0
-250 0 2 -352z"/>
<path d="M5320 2403 c0 -125 3 -286 7 -356 l6 -128 86 3 86 3 0 202 c0 111 2
199 5 197 3 -3 70 -94 150 -202 l145 -197 93 -3 92 -3 0 356 0 355 -90 0 -90
0 0 -210 c0 -115 -3 -210 -7 -209 -5 0 -76 93 -159 207 l-151 207 -86 3 -87 3
0 -228z"/>
<path d="M6200 2275 l0 -355 90 0 90 0 0 355 0 355 -90 0 -90 0 0 -355z"/>
<path d="M6580 2275 l0 -355 245 0 245 0 0 70 0 70 -155 0 -155 0 0 75 0 75
155 0 155 0 0 70 0 70 -155 0 -155 0 0 70 0 70 155 0 155 0 0 70 0 70 -245 0
-245 0 0 -355z"/>
<path d="M7260 2457 c0 -96 3 -256 7 -356 l6 -181 236 2 236 3 3 68 3 67 -156
0 -155 0 0 75 0 75 150 0 150 0 0 70 0 70 -150 0 -150 0 0 70 0 70 150 0 150
0 0 70 0 70 -240 0 -240 0 0 -173z"/>
<path d="M7928 2275 l2 -356 83 3 82 3 3 113 3 112 39 0 c37 0 41 -3 126 -116
l87 -116 82 4 c46 1 86 6 90 10 4 4 -22 44 -57 90 -36 46 -78 102 -93 126
l-28 43 42 42 c53 52 71 85 77 145 11 92 -41 183 -128 226 -50 25 -58 26 -232
26 l-181 0 3 -355z m340 181 c38 -37 37 -99 -1 -132 -24 -20 -39 -24 -98 -24
l-69 0 0 96 0 97 71 -5 c60 -5 75 -10 97 -32z"/>
</g>
</svg>
